# Blender v2.78 (sub 0) OBJ File: 'TV.blend'
# www.blender.org
mtllib TV.mtl
o Cube_Cube.001
v -1.080172 -0.054552 0.992113
v -1.080172 1.945448 0.992113
v -1.080172 -0.054552 -0.390858
v -1.080172 1.945448 -0.390858
v 1.338096 -0.054552 0.992113
v 1.338096 1.945448 0.992113
v 1.338096 -0.054552 -0.390858
v 1.338096 1.945448 -0.390858
v -0.819505 1.729867 -1.110880
v -0.819505 0.161030 -1.110880
v 1.077429 0.161030 -1.110880
v 1.077429 1.729867 -1.110880
v -0.818169 0.162135 0.950048
v -0.818169 1.728762 0.950048
v 1.076092 1.728762 0.950048
v 1.076092 0.162135 0.950048
vt 0.1619 0.4516
vt 0.1680 0.4068
vt 0.2128 0.4129
vt 0.2067 0.4577
vt 0.1619 0.4516
vt 0.1680 0.4068
vt 0.2128 0.4129
vt 0.2067 0.4577
vt 0.1619 0.4516
vt 0.2128 0.4129
vt 0.2067 0.4577
vt 0.1619 0.4516
vt 0.1680 0.4068
vt 0.2128 0.4129
vt 0.2067 0.4577
vt 0.1619 0.4516
vt 0.1680 0.4068
vt 0.2128 0.4129
vt 0.2067 0.4577
vt 0.1619 0.4516
vt 0.1680 0.4068
vt 0.2128 0.4129
vt 0.2067 0.4577
vt 0.1619 0.4516
vt 0.1680 0.4068
vt 0.2067 0.4577
vt 0.2128 0.4129
vt 0.2067 0.4577
vt 0.2128 0.4129
vt 0.2067 0.4577
vt 0.1680 0.4068
vt 0.2128 0.4129
vt 0.1619 0.4516
vt 0.1680 0.4068
vt 0.2128 0.4129
vt 0.2067 0.4577
vt 0.1680 0.4068
vt 0.2128 0.4129
vt 0.1619 0.4516
vt 0.2067 0.4577
vt 0.1619 0.4516
vt 0.1680 0.4068
vt 0.2128 0.4129
vt 0.2067 0.4577
vn -1.0000 0.0000 0.0000
vn 0.0000 0.9580 -0.2868
vn 1.0000 0.0000 0.0000
vn 0.1585 0.0000 0.9874
vn 0.0000 -1.0000 0.0000
vn 0.0000 1.0000 0.0000
vn 0.0000 0.0000 -1.0000
vn -0.9403 0.0000 -0.3404
vn 0.9403 0.0000 -0.3404
vn 0.0000 -0.9580 -0.2868
vn 0.0000 0.0000 1.0000
vn 0.0000 0.1906 0.9817
vn 0.0000 -0.1906 0.9817
vn -0.1585 0.0000 0.9874
usemtl Textures
s off
f 1/1/1 2/2/1 4/3/1 3/4/1
f 4/5/2 8/6/2 12/7/2 9/8/2
f 7/9/3 8/6/3 6/10/3 5/11/3
f 2/12/4 1/13/4 13/14/4 14/15/4
f 3/16/5 7/17/5 5/18/5 1/19/5
f 8/20/6 4/21/6 2/22/6 6/23/6
f 10/24/7 9/25/7 12/7/7 11/26/7
f 3/16/8 4/21/8 9/27/8 10/28/8
f 8/20/9 7/17/9 11/29/9 12/30/9
f 7/9/10 3/31/10 10/32/10 11/26/10
f 16/33/11 15/34/11 14/35/11 13/36/11
f 1/1/12 5/37/12 16/38/12 13/36/12
f 6/39/13 2/2/13 14/35/13 15/40/13
f 5/41/14 6/42/14 15/43/14 16/44/14
